<?xml version="1.0" encoding="utf-8"?>
<!-- Generator: Adobe Illustrator 18.0.0, SVG Export Plug-In . SVG Version: 6.00 Build 0)  -->
<!DOCTYPE svg PUBLIC "-//W3C//DTD SVG 1.1//EN" "http://www.w3.org/Graphics/SVG/1.1/DTD/svg11.dtd">
<svg version="1.1" id="Layer_1" xmlns="http://www.w3.org/2000/svg" xmlns:xlink="http://www.w3.org/1999/xlink" x="0px" y="0px"
	 viewBox="0 0 512 512" enable-background="new 0 0 512 512" xml:space="preserve">
<g>
	<path fill="#FFFFFF" d="M186.8,152.7c9.7,0,18.5,0.8,26.4,2.6c8,1.7,14.7,4.5,20.5,8.4c5.6,3.9,10.1,9,13.2,15.5
		c3.1,6.4,4.6,14.4,4.6,23.8c0,10.2-2.3,18.7-6.9,25.5c-4.7,6.8-11.5,12.4-20.7,16.7c12.5,3.6,21.7,9.9,27.8,18.9
		c6.2,9,9.2,19.9,9.2,32.5c0,10.3-2,19.1-5.9,26.6c-4,7.5-9.4,13.6-16,18.4c-6.7,4.8-14.4,8.2-23.1,10.5c-8.5,2.3-17.4,3.4-26.5,3.4
		H91.2V152.7H186.8z M181,234.6c7.9,0,14.5-1.9,19.6-5.7c5.1-3.7,7.6-9.9,7.6-18.4c0-4.7-0.8-8.6-2.5-11.6c-1.7-3-4-5.4-6.9-7.1
		c-2.9-1.7-6.1-2.9-9.8-3.6c-3.7-0.7-7.5-1-11.5-1h-41.8v47.4H181z M183.5,320.9c4.4,0,8.6-0.4,12.5-1.3c4-0.9,7.5-2.3,10.5-4.3
		c3-2,5.5-4.7,7.3-8.1c1.8-3.4,2.7-7.8,2.7-13.1c0-10.5-2.9-17.9-8.8-22.4c-5.9-4.4-13.7-6.7-23.3-6.7h-48.5v55.8H183.5z"/>
	<path fill="#FFFFFF" d="M324.6,320.3c6,5.9,14.8,8.9,26.1,8.9c8.1,0,15.2-2.1,21.1-6.2c5.8-4.1,9.4-8.5,10.8-13H418
		c-5.7,17.7-14.4,30.3-26.2,37.9c-11.7,7.6-25.9,11.4-42.5,11.4c-11.6,0-22-1.9-31.3-5.6c-9.3-3.7-17.1-9-23.7-15.8
		c-6.4-6.9-11.4-15-14.9-24.5c-3.5-9.5-5.3-19.9-5.3-31.3c0-11,1.8-21.2,5.4-30.7c3.7-9.5,8.7-17.7,15.4-24.6
		c6.7-6.9,14.6-12.4,23.8-16.4c9.2-4,19.4-6,30.6-6c12.4,0,23.3,2.4,32.6,7.3c9.3,4.8,16.9,11.3,22.9,19.5
		c6,8.1,10.2,17.4,12.9,27.9c2.6,10.4,3.6,21.3,2.8,32.7H314.6C314.6,303.4,318.5,314.4,324.6,320.3z M370.9,243.1
		c-4.8-5.3-12.9-8.2-22.8-8.2c-6.4,0-11.8,1.1-16,3.3c-4.2,2.2-7.6,4.9-10.2,8.1c-2.6,3.2-4.4,6.7-5.4,10.3c-1,3.6-1.7,6.8-1.8,9.7
		h65.6C379.3,256.1,375.7,248.5,370.9,243.1z"/>
	<rect x="306.4" y="166.3" fill="#FFFFFF" width="82.2" height="20"/>
</g>
</svg>
