<?xml version="1.0" encoding="utf-8"?>
<!-- Generator: Adobe Illustrator 18.0.0, SVG Export Plug-In . SVG Version: 6.00 Build 0)  -->
<!DOCTYPE svg PUBLIC "-//W3C//DTD SVG 1.1//EN" "http://www.w3.org/Graphics/SVG/1.1/DTD/svg11.dtd">
<svg version="1.1" id="Layer_1" xmlns="http://www.w3.org/2000/svg" xmlns:xlink="http://www.w3.org/1999/xlink" x="0px" y="0px"
	 width="792px" height="614.4px" viewBox="0 388.8 792 614.4" enable-background="new 0 388.8 792 614.4" xml:space="preserve">
<path fill="#FFFFFF" d="M753.7,457.5v309H38.3v-309H753.7 M762.3,448.9h-8.6H38.3h-8.6v8.6v309v8.6h8.6h715.4h8.6v-8.6v-309V448.9
	L762.3,448.9z"/>
<g>
	<path fill="#FFFFFF" d="M169.5,557.9v-51.2h15.8v126.9h-15.8v-60.9h-60.4v60.9H93.3V506.7h15.8v51.2H169.5z"/>
	<path fill="#FFFFFF" d="M239.7,601.8l-14.5,31.8h-17l60.6-132.3l60.6,132.3h-17l-14.5-31.8H239.7z M268.8,536l-22.6,51.3h45.1
		L268.8,536z"/>
	<path fill="#FFFFFF" d="M409.8,530.8c-4.7-7.9-10.8-12-20.4-12c-10.1,0-21.2,6.9-21.2,18c0,9.9,9.8,15.2,17.7,18.2l9.1,3.5
		c18,7.1,31.5,17,31.5,38.2c0,23.1-17.8,39.5-40.6,39.5c-20.5,0-36.5-15.1-39.2-35.5l16-3.4c-0.2,14,10.9,24.1,24.6,24.1
		c13.6,0,23.4-11.4,23.4-24.7c0-13.6-10.9-19.5-21.9-24.1L380,569c-14.5-6.2-27.6-14.5-27.6-32.2c0-20.5,18.2-32.8,37.4-32.8
		c14.1,0,25.8,6.9,32.7,19.2L409.8,530.8z"/>
	<path fill="#FFFFFF" d="M475.3,601.8l-14.5,31.8h-17l60.6-132.3L565,633.6h-17l-14.5-31.8H475.3z M504.4,536l-22.6,51.3h45.1
		L504.4,536z"/>
	<path fill="#FFFFFF" d="M587.5,500.6l95.3,99.8v-93.7h15.8v132.1L603.3,539v94.6h-15.8V500.6z"/>
	<path fill="#FFFFFF" d="M94.8,659.2h4.4l18.3,31.5l18.3-31.5h4.4l-20.7,35.6v26.5h-4v-26.5L94.8,659.2z"/>
	<path fill="#FFFFFF" d="M239.1,700.9l-8.3,20.4h-4l26-64.2l26,64.2h-4l-8.3-20.4H239.1z M252.8,667.2l-12.2,30h24.3L252.8,667.2z"
		/>
	<path fill="#FFFFFF" d="M387.7,712.2h0.2l18.4-53.1h4l-22.6,64.2l-22.3-64.2h4L387.7,712.2z"/>
	<path fill="#FFFFFF" d="M548.9,659.2h4v38.7c0,6.3,0,11.8-4.2,17c-4.2,4.8-10.6,7.3-16.9,7.3c-6.3,0-12.7-2.5-16.9-7.3
		c-4.2-5.2-4.2-10.6-4.2-17v-38.7h3.9v37.6c0,5.6,0,11.5,3.2,15.6c3,4,9.1,6,13.9,6c4.8,0,10.9-2.1,13.9-6c3.2-4.1,3.2-10,3.2-15.6
		V659.2z"/>
	<path fill="#FFFFFF" d="M697.7,717.6v3.7h-43.7l37.9-58.4h-34.3v-3.7h41.2l-37.9,58.4H697.7z"/>
</g>
</svg>
