<?xml version="1.0" encoding="utf-8"?>
<!-- Generator: Adobe Illustrator 18.0.0, SVG Export Plug-In . SVG Version: 6.00 Build 0)  -->
<!DOCTYPE svg PUBLIC "-//W3C//DTD SVG 1.1//EN" "http://www.w3.org/Graphics/SVG/1.1/DTD/svg11.dtd">
<svg version="1.1" id="Layer_1" xmlns="http://www.w3.org/2000/svg" xmlns:xlink="http://www.w3.org/1999/xlink" x="0px" y="0px"
	 viewBox="0 0 369.2 167.3" enable-background="new 0 0 369.2 167.3" xml:space="preserve">
<g>
	<g>
		<path fill="#FFFFFF" d="M90,98h-7.7V72.4H51.9V98h-7.7V41.7h7.7v25.1h30.4V41.7H90V98z"/>
		<path fill="#FFFFFF" d="M156.8,98h-5.9c-0.7,0-1.2-0.2-1.7-0.5s-0.7-0.8-0.9-1.3L143,82.6h-25.3l-5.3,13.6
			c-0.2,0.5-0.5,0.9-0.9,1.3c-0.4,0.4-1,0.5-1.7,0.5H104l22.5-56.3h7.7L156.8,98z M119.9,77.1h21l-8.8-22.9
			c-0.6-1.4-1.1-3.2-1.7-5.3c-0.3,1.1-0.6,2.1-0.8,3c-0.3,0.9-0.5,1.7-0.8,2.4L119.9,77.1z"/>
		<path fill="#FFFFFF" d="M199.5,50.5c-0.2,0.4-0.5,0.7-0.7,0.9c-0.3,0.2-0.6,0.3-1,0.3c-0.4,0-1-0.2-1.6-0.7s-1.3-0.9-2.2-1.5
			c-0.9-0.5-2-1-3.3-1.5c-1.3-0.4-2.8-0.7-4.6-0.7c-1.7,0-3.2,0.2-4.5,0.7c-1.3,0.5-2.4,1.1-3.3,1.9c-0.9,0.8-1.5,1.7-2,2.8
			c-0.4,1.1-0.7,2.2-0.7,3.4c0,1.6,0.4,2.9,1.2,3.9c0.8,1,1.8,1.9,3.1,2.7c1.3,0.7,2.7,1.4,4.3,1.9c1.6,0.5,3.3,1.1,5,1.7
			c1.7,0.6,3.3,1.2,5,1.9c1.6,0.7,3.1,1.6,4.3,2.7c1.3,1.1,2.3,2.5,3.1,4c0.8,1.6,1.2,3.6,1.2,5.9c0,2.5-0.4,4.8-1.3,6.9
			c-0.8,2.2-2.1,4-3.7,5.6s-3.6,2.9-5.9,3.8s-5,1.4-8,1.4c-3.6,0-7-0.7-10-2c-3-1.3-5.6-3.1-7.7-5.4l2.2-3.6
			c0.2-0.3,0.5-0.5,0.8-0.7c0.3-0.2,0.6-0.3,1-0.3c0.6,0,1.2,0.3,1.9,0.9c0.7,0.6,1.6,1.2,2.7,1.9c1.1,0.7,2.3,1.4,3.9,1.9
			c1.5,0.6,3.3,0.9,5.5,0.9c1.8,0,3.4-0.2,4.8-0.7s2.6-1.2,3.6-2.1c1-0.9,1.7-2,2.3-3.2s0.8-2.7,0.8-4.2c0-1.7-0.4-3.1-1.2-4.2
			c-0.8-1.1-1.8-2-3-2.7c-1.3-0.7-2.7-1.4-4.3-1.9c-1.6-0.5-3.3-1-5-1.6c-1.7-0.5-3.3-1.2-5-1.9c-1.6-0.7-3-1.6-4.3-2.8
			c-1.3-1.1-2.3-2.5-3-4.2c-0.8-1.7-1.2-3.8-1.2-6.3c0-2,0.4-3.9,1.2-5.8c0.8-1.9,1.9-3.5,3.4-5c1.5-1.4,3.3-2.6,5.4-3.5
			s4.6-1.3,7.5-1.3c3.1,0,6,0.5,8.6,1.5s4.9,2.4,6.8,4.3L199.5,50.5z"/>
		<path fill="#FFFFFF" d="M265.4,98h-5.9c-0.7,0-1.2-0.2-1.7-0.5s-0.7-0.8-0.9-1.3l-5.3-13.6h-25.3l-5.3,13.6
			c-0.2,0.5-0.5,0.9-0.9,1.3c-0.4,0.4-1,0.5-1.7,0.5h-5.9l22.5-56.3h7.7L265.4,98z M228.5,77.1h21l-8.8-22.9
			c-0.6-1.4-1.1-3.2-1.7-5.3c-0.3,1.1-0.6,2.1-0.8,3c-0.3,0.9-0.5,1.7-0.8,2.4L228.5,77.1z"/>
		<path fill="#FFFFFF" d="M284.6,41.9c0.3,0.2,0.7,0.5,1.1,1l32.6,42.5c-0.1-0.7-0.1-1.3-0.2-2c0-0.6,0-1.3,0-1.9V41.7h6.7V98H321
			c-0.6,0-1.1-0.1-1.5-0.3c-0.4-0.2-0.8-0.6-1.2-1.1l-32.6-42.4c0.1,0.7,0.1,1.3,0.1,1.9s0,1.2,0,1.7V98h-6.7V41.7h3.9
			C283.8,41.7,284.3,41.7,284.6,41.9z"/>
		<path fill="#FFFFFF" d="M53.9,121.2v8.8h-1.5v-8.8l-7.9-12.5h1.3c0.1,0,0.3,0,0.3,0.1c0.1,0.1,0.2,0.2,0.2,0.3l6.1,9.8
			c0.1,0.2,0.3,0.5,0.4,0.7c0.1,0.2,0.2,0.4,0.3,0.7c0.1-0.2,0.2-0.4,0.3-0.7c0.1-0.2,0.2-0.4,0.4-0.7l6.1-9.8
			c0.1-0.1,0.1-0.2,0.2-0.3c0.1-0.1,0.2-0.1,0.3-0.1h1.4L53.9,121.2z"/>
		<path fill="#FFFFFF" d="M126,130h-1.2c-0.1,0-0.3,0-0.3-0.1s-0.2-0.2-0.2-0.3l-2.5-6.2h-10.4l-2.5,6.2c0,0.1-0.1,0.2-0.2,0.3
			c-0.1,0.1-0.2,0.1-0.4,0.1h-1.2l8.7-21.2h1.5L126,130z M111.8,122.3h9.5l-4.3-10.7c-0.1-0.2-0.1-0.4-0.2-0.6
			c-0.1-0.2-0.1-0.4-0.2-0.7c-0.1,0.2-0.1,0.5-0.2,0.7c-0.1,0.2-0.1,0.4-0.2,0.6L111.8,122.3z"/>
		<path fill="#FFFFFF" d="M171.8,108.8h1.2c0.1,0,0.3,0,0.3,0.1c0.1,0.1,0.2,0.2,0.2,0.3l7.2,17.6c0.2,0.5,0.3,1,0.5,1.5
			c0.1-0.5,0.3-1,0.4-1.5l7.2-17.6c0-0.1,0.1-0.2,0.2-0.3c0.1-0.1,0.2-0.1,0.4-0.1h1.2L182,130h-1.4L171.8,108.8z"/>
		<path fill="#FFFFFF" d="M248.8,128.9c1,0,1.9-0.2,2.7-0.5c0.8-0.4,1.5-0.8,2-1.5c0.6-0.6,1-1.4,1.3-2.2c0.3-0.9,0.4-1.8,0.4-2.8
			v-13.1h1.5v13.1c0,1.2-0.2,2.3-0.6,3.3c-0.4,1-0.9,1.9-1.6,2.7c-0.7,0.8-1.5,1.3-2.5,1.8c-1,0.4-2.1,0.6-3.4,0.6
			c-1.2,0-2.4-0.2-3.4-0.6c-1-0.4-1.8-1-2.5-1.8c-0.7-0.8-1.2-1.6-1.6-2.7c-0.4-1-0.6-2.1-0.6-3.3v-13.1h1.5v13.1
			c0,1,0.1,1.9,0.4,2.8c0.3,0.9,0.7,1.6,1.3,2.2c0.6,0.6,1.2,1.1,2,1.5C246.9,128.7,247.8,128.9,248.8,128.9z"/>
		<path fill="#FFFFFF" d="M324.1,108.8v0.5c0,0.2-0.1,0.4-0.2,0.6l-13.5,18.8H324v1.3h-15.6v-0.6c0-0.2,0.1-0.4,0.2-0.5l13.5-18.9
			h-13.3v-1.3H324.1z"/>
	</g>
	<path fill="#FFFFFF" d="M356,16.3V151H13.2V16.3H356 M360,12.3h-4H13.2h-4v4V151v4h4H356h4v-4V16.3V12.3L360,12.3z"/>
</g>
</svg>
