<?xml version="1.0" encoding="utf-8"?>
<!-- Generator: Adobe Illustrator 18.0.0, SVG Export Plug-In . SVG Version: 6.00 Build 0)  -->
<!DOCTYPE svg PUBLIC "-//W3C//DTD SVG 1.1//EN" "http://www.w3.org/Graphics/SVG/1.1/DTD/svg11.dtd">
<svg version="1.1" id="Layer_1" xmlns="http://www.w3.org/2000/svg" xmlns:xlink="http://www.w3.org/1999/xlink" x="0px" y="0px"
	 viewBox="0 0 512 512" enable-background="new 0 0 512 512" xml:space="preserve">
<g>
	<path fill="#FFFFFF" d="M137.9,215.1h50.6v162.8h-50.6V215.1z M163.3,134.1c16.2,0,29.3,13.1,29.3,29.3c0,16.2-13.1,29.3-29.3,29.3
		c-16.2,0-29.3-13.1-29.3-29.3C133.9,147.3,147,134.1,163.3,134.1"/>
	<path fill="#FFFFFF" d="M220.3,215.1h48.5v22.2h0.7c6.8-12.8,23.3-26.3,47.9-26.3c51.2,0,60.7,33.7,60.7,77.6v89.3h-50.5v-79.2
		c0-18.9-0.4-43.2-26.3-43.2c-26.3,0-30.3,20.6-30.3,41.8v80.5h-50.6V215.1z"/>
</g>
</svg>
