<?xml version="1.0" encoding="utf-8"?>
<!-- Generator: Adobe Illustrator 18.0.0, SVG Export Plug-In . SVG Version: 6.00 Build 0)  -->
<!DOCTYPE svg PUBLIC "-//W3C//DTD SVG 1.1//EN" "http://www.w3.org/Graphics/SVG/1.1/DTD/svg11.dtd">
<svg version="1.1" id="Layer_1" xmlns="http://www.w3.org/2000/svg" xmlns:xlink="http://www.w3.org/1999/xlink" x="0px" y="0px"
	 viewBox="0 0 512 512" enable-background="new 0 0 512 512" xml:space="preserve">
<path id="twitter-icon" fill="#FFFFFF" d="M409.1,161c-11.3,5-23.4,8.4-36.1,9.9c13-7.8,22.9-20.1,27.6-34.8
	c-12.1,7.2-25.6,12.4-39.9,15.2c-11.5-12.2-27.8-19.8-45.9-19.8c-40.5,0-70.4,37.8-61.2,77.1c-52.2-2.6-98.5-27.6-129.5-65.6
	c-16.5,28.2-8.5,65.2,19.4,83.9c-10.3-0.3-20-3.2-28.5-7.9c-0.7,29.1,20.2,56.3,50.4,62.4c-8.8,2.4-18.5,3-28.4,1.1
	c8,25,31.2,43.1,58.7,43.6c-26.4,20.7-59.7,29.9-93,26c27.8,17.8,60.8,28.2,96.3,28.2c116.6,0,182.5-98.5,178.5-186.9
	C390,184.7,400.7,173.6,409.1,161z"/>
</svg>
