<?xml version="1.0" encoding="utf-8"?>
<!-- Generator: Adobe Illustrator 18.0.0, SVG Export Plug-In . SVG Version: 6.00 Build 0)  -->
<!DOCTYPE svg PUBLIC "-//W3C//DTD SVG 1.1//EN" "http://www.w3.org/Graphics/SVG/1.1/DTD/svg11.dtd">
<svg version="1.1" id="Layer_1" xmlns="http://www.w3.org/2000/svg" xmlns:xlink="http://www.w3.org/1999/xlink" x="0px" y="0px"
	 viewBox="0 0 792 612" enable-background="new 0 0 792 612" xml:space="preserve">
<g>
	<path fill="#6E6F74" d="M586,90.5c0.6-0.3,0.4-1.1-0.2-1.2c-19.8-3.6-176.6-27.9-237.2,85.9c0,0-46.2,91.2,41.7,166.6
		c0,0-61.5,57.8-78.8,158.4v0c-3.1,13.9,7.5,27,21.7,27H605c13.2,0,23.5-11.4,22.1-24.5l-2.7-25c0,0-13.1-90.8-73.6-134
		c0,0,96.1-66.6,39.2-179.2C590.1,164.6,553.8,106,586,90.5z"/>
	<g>
		<path fill="#6E6F74" d="M195.6,237.6c0.4,0.3,0.9-0.1,0.7-0.6c-3.1-7.1-15.2-38.6-1.3-62.1c0,0,14.6-29.3,61.1-19.1
			c0,0,22.5,7.9,32.1,14.9V120c0,0-94.6-32.6-119.6,38.3C168.6,158.3,149.8,206.6,195.6,237.6z"/>
		<path fill="#FCD395" d="M288.2,120v391.2c0,8.9,7.2,16,16,16h0c8.9,0,16-7.2,16-16V120C320.3,120,306.2,112.4,288.2,120z"/>
	</g>
	<path fill="#EAEAEA" d="M364.9,417.6v37.7c0,4.7-3.8,8.6-8.6,8.6h-28.5c-0.2,0-0.5,0-0.7,0c-12.6-0.3-23.1-9.1-25.9-20.9
		c-0.8-3.1,1.2-6.2,4.3-7.1c5.9-1.6,14.8-7.1,14.8-25.7l0,0c2.2-0.6,4.5-1,6.8-1c0.2,0,0.5,0,0.7,0h28.5
		C361.1,409,364.9,412.9,364.9,417.6z"/>
	<path fill="#EAEAEA" d="M555.4,424v28.5c0,0.2,0,0.5,0,0.7c-0.4,14.8-12.5,26.7-27.4,26.7s-27-11.9-27.4-26.7c0-0.2,0-0.5,0-0.7
		V424c0-4.7,3.8-8.6,8.6-8.6h37.7C551.6,415.4,555.4,419.3,555.4,424z"/>
	<path fill="#EAEAEA" d="M462.3,310.1v23.8c0,1.6-1.3,2.9-2.9,2.9h-14.6c-1.6,0-2.9-1.3-2.9-2.9v-24c0-1.6-1.3-2.9-2.9-2.9h-9
		c-1.6,0-2.9,1.3-2.9,2.9v24c0,1.6-1.3,2.9-2.9,2.9h-14.9c-1.6,0-2.9-1.3-2.9-2.9c-1.1-26-16.8-46.3-16.8-46.3
		c-6.8-8.6-11.6-24-11.6-24c-15-55.2,8.6-84.8,15-91.6c0.9-1,2.1-1.5,3.5-1.5h150c1.3,0,2.6,0.5,3.5,1.5c6.4,6.7,30,36.3,15,91.6
		c0,0-4.9,15.4-11.6,24c0,0-15.7,20.3-16.8,46.3c-0.1,1.6-1.3,2.9-2.9,2.9h-14.9c-1.6,0-2.9-1.3-2.9-2.9v-24c0-1.6-1.3-2.9-2.9-2.9
		h-9c-1.6,0-2.9,1.3-2.9,2.9v24c0,1.6-1.3,2.9-2.9,2.9h-14.6c-1.6,0-2.9-1.3-2.9-2.9v-23.8c0-1.6-1.3-2.9-2.9-2.9h-12.2
		C463.6,307.1,462.3,308.5,462.3,310.1z"/>
	<g>
		<g>
			<circle fill="#6699BC" cx="427.5" cy="225.1" r="25.1"/>
			<circle opacity="0.65" fill="#FFFFFF" cx="419.8" cy="213.8" r="5.6"/>
		</g>
		<g>
			<circle fill="#6699BC" cx="515.3" cy="225.1" r="25.1"/>
			<circle opacity="0.65" fill="#FFFFFF" cx="507.6" cy="213.8" r="5.6"/>
		</g>
	</g>
	<path fill="#807C84" d="M457.5,276.9l10.1-17.5c1.7-2.9,5.8-2.9,7.4,0l10.1,17.5c1.7,2.9-0.4,6.4-3.7,6.4h-20.2
		C457.9,283.4,455.9,279.8,457.5,276.9z"/>
</g>
</svg>
